<mxfile host="app.diagrams.net" modified="2024-04-06T16:07:18.955Z" agent="Mozilla/5.0 (Windows NT 10.0; Win64; x64) AppleWebKit/537.36 (KHTML, like Gecko) Chrome/123.0.0.0 Safari/537.36 Edg/123.0.0.0" etag="SCWxn7F0jPXCNj3YDoY8" version="24.2.1" type="device">
  <diagram name="Page-1" id="5kye0BfmGoE3RPmWMngK">
    <mxGraphModel dx="1426" dy="751" grid="1" gridSize="10" guides="1" tooltips="1" connect="1" arrows="1" fold="1" page="1" pageScale="1" pageWidth="1169" pageHeight="827" math="0" shadow="0">
      <root>
        <mxCell id="0" />
        <mxCell id="1" parent="0" />
        <mxCell id="9_Nisc85x8kSFl2lh7D6-2" value="" style="swimlane;startSize=0;" parent="1" vertex="1">
          <mxGeometry x="120" y="120" width="930" height="600" as="geometry">
            <mxRectangle x="120" y="120" width="50" height="40" as="alternateBounds" />
          </mxGeometry>
        </mxCell>
        <mxCell id="H-8P2ColLHqAHthHf_-5-86" value="" style="rounded=0;whiteSpace=wrap;html=1;fillColor=#d5e8d4;strokeColor=#82b366;strokeWidth=0;" vertex="1" parent="9_Nisc85x8kSFl2lh7D6-2">
          <mxGeometry x="68" y="286" width="111" height="19.5" as="geometry" />
        </mxCell>
        <mxCell id="H-8P2ColLHqAHthHf_-5-85" value="" style="rounded=0;whiteSpace=wrap;html=1;fillColor=#d5e8d4;strokeColor=#82b366;strokeWidth=0;" vertex="1" parent="9_Nisc85x8kSFl2lh7D6-2">
          <mxGeometry x="679" y="41.25" width="111" height="19.5" as="geometry" />
        </mxCell>
        <mxCell id="H-8P2ColLHqAHthHf_-5-7" value="Inventory" style="strokeWidth=2;html=1;shape=mxgraph.flowchart.annotation_1;align=left;pointerEvents=1;" vertex="1" parent="9_Nisc85x8kSFl2lh7D6-2">
          <mxGeometry x="89" y="284.5" width="90" height="21" as="geometry" />
        </mxCell>
        <mxCell id="H-8P2ColLHqAHthHf_-5-13" value="D1" style="strokeWidth=2;html=1;shape=mxgraph.flowchart.annotation_1;align=left;pointerEvents=1;" vertex="1" parent="9_Nisc85x8kSFl2lh7D6-2">
          <mxGeometry x="69" y="284.5" width="20" height="21" as="geometry" />
        </mxCell>
        <mxCell id="H-8P2ColLHqAHthHf_-5-60" value="Desired&lt;div&gt;Items to&lt;/div&gt;&lt;div&gt;Purchase&lt;/div&gt;" style="edgeStyle=orthogonalEdgeStyle;rounded=0;orthogonalLoop=1;jettySize=auto;html=1;exitX=0;exitY=0.75;exitDx=0;exitDy=0;entryX=1;entryY=0.5;entryDx=0;entryDy=0;" edge="1" parent="9_Nisc85x8kSFl2lh7D6-2" source="H-8P2ColLHqAHthHf_-5-14" target="H-8P2ColLHqAHthHf_-5-17">
          <mxGeometry relative="1" as="geometry">
            <Array as="points">
              <mxPoint x="409" y="223.5" />
              <mxPoint x="409" y="265.5" />
            </Array>
          </mxGeometry>
        </mxCell>
        <mxCell id="H-8P2ColLHqAHthHf_-5-62" value="Purchase&lt;div&gt;Confirmation&lt;/div&gt;" style="edgeStyle=orthogonalEdgeStyle;rounded=0;orthogonalLoop=1;jettySize=auto;html=1;exitX=0.397;exitY=1.022;exitDx=0;exitDy=0;entryX=1;entryY=0.75;entryDx=0;entryDy=0;exitPerimeter=0;" edge="1" parent="9_Nisc85x8kSFl2lh7D6-2" source="H-8P2ColLHqAHthHf_-5-14" target="H-8P2ColLHqAHthHf_-5-27">
          <mxGeometry x="0.5173" y="-5" relative="1" as="geometry">
            <mxPoint as="offset" />
          </mxGeometry>
        </mxCell>
        <mxCell id="H-8P2ColLHqAHthHf_-5-63" value="Delivery&lt;div&gt;Detail&lt;/div&gt;&lt;div&gt;Confirmation&lt;/div&gt;" style="edgeStyle=orthogonalEdgeStyle;rounded=0;orthogonalLoop=1;jettySize=auto;html=1;exitX=0.5;exitY=1;exitDx=0;exitDy=0;entryX=1.005;entryY=0.52;entryDx=0;entryDy=0;entryPerimeter=0;" edge="1" parent="9_Nisc85x8kSFl2lh7D6-2" source="H-8P2ColLHqAHthHf_-5-14" target="H-8P2ColLHqAHthHf_-5-31">
          <mxGeometry x="-0.0591" relative="1" as="geometry">
            <mxPoint x="339" y="456.5" as="targetPoint" />
            <Array as="points">
              <mxPoint x="509" y="457" />
              <mxPoint x="360" y="457" />
            </Array>
            <mxPoint as="offset" />
          </mxGeometry>
        </mxCell>
        <mxCell id="H-8P2ColLHqAHthHf_-5-68" value="Confirm&lt;div&gt;Payment&lt;/div&gt;&lt;div&gt;Details&lt;/div&gt;" style="edgeStyle=orthogonalEdgeStyle;rounded=0;orthogonalLoop=1;jettySize=auto;html=1;exitX=0.75;exitY=1;exitDx=0;exitDy=0;entryX=0;entryY=0.75;entryDx=0;entryDy=0;" edge="1" parent="9_Nisc85x8kSFl2lh7D6-2" source="H-8P2ColLHqAHthHf_-5-14" target="H-8P2ColLHqAHthHf_-5-29">
          <mxGeometry relative="1" as="geometry" />
        </mxCell>
        <mxCell id="H-8P2ColLHqAHthHf_-5-14" value="Customer" style="rounded=0;whiteSpace=wrap;html=1;fillColor=#fff2cc;strokeColor=#d6b656;" vertex="1" parent="9_Nisc85x8kSFl2lh7D6-2">
          <mxGeometry x="459" y="200.5" width="100" height="30" as="geometry" />
        </mxCell>
        <mxCell id="H-8P2ColLHqAHthHf_-5-2" value="Browse&lt;div&gt;Catalogue&lt;/div&gt;" style="rounded=1;whiteSpace=wrap;html=1;fillColor=#dae8fc;strokeColor=#6c8ebf;" vertex="1" parent="9_Nisc85x8kSFl2lh7D6-2">
          <mxGeometry x="240" y="50.5" width="80" height="80" as="geometry" />
        </mxCell>
        <mxCell id="H-8P2ColLHqAHthHf_-5-4" value="1" style="endArrow=none;html=1;rounded=0;exitX=0;exitY=0.25;exitDx=0;exitDy=0;entryX=1;entryY=0.25;entryDx=0;entryDy=0;labelBackgroundColor=none;" edge="1" parent="9_Nisc85x8kSFl2lh7D6-2" source="H-8P2ColLHqAHthHf_-5-2" target="H-8P2ColLHqAHthHf_-5-2">
          <mxGeometry y="10" width="50" height="50" relative="1" as="geometry">
            <mxPoint x="430" y="220.5" as="sourcePoint" />
            <mxPoint x="480" y="170.5" as="targetPoint" />
            <mxPoint as="offset" />
          </mxGeometry>
        </mxCell>
        <mxCell id="H-8P2ColLHqAHthHf_-5-17" value="Add to Cart" style="rounded=1;whiteSpace=wrap;html=1;fillColor=#dae8fc;strokeColor=#6c8ebf;" vertex="1" parent="9_Nisc85x8kSFl2lh7D6-2">
          <mxGeometry x="240" y="235.5" width="80" height="60" as="geometry" />
        </mxCell>
        <mxCell id="H-8P2ColLHqAHthHf_-5-18" value="5" style="endArrow=none;html=1;rounded=0;exitX=0;exitY=0.25;exitDx=0;exitDy=0;entryX=1;entryY=0.25;entryDx=0;entryDy=0;labelBackgroundColor=none;" edge="1" source="H-8P2ColLHqAHthHf_-5-17" target="H-8P2ColLHqAHthHf_-5-17" parent="9_Nisc85x8kSFl2lh7D6-2">
          <mxGeometry y="8" width="50" height="50" relative="1" as="geometry">
            <mxPoint x="120" y="35.5" as="sourcePoint" />
            <mxPoint x="170" y="-14.5" as="targetPoint" />
            <mxPoint as="offset" />
          </mxGeometry>
        </mxCell>
        <mxCell id="H-8P2ColLHqAHthHf_-5-21" value="Add to&amp;nbsp;&lt;div&gt;Wishlist&lt;/div&gt;" style="rounded=1;whiteSpace=wrap;html=1;fillColor=#dae8fc;strokeColor=#6c8ebf;" vertex="1" parent="9_Nisc85x8kSFl2lh7D6-2">
          <mxGeometry x="240" y="150.5" width="80" height="80" as="geometry" />
        </mxCell>
        <mxCell id="H-8P2ColLHqAHthHf_-5-22" value="2" style="endArrow=none;html=1;rounded=0;exitX=0;exitY=0.25;exitDx=0;exitDy=0;entryX=1;entryY=0.25;entryDx=0;entryDy=0;labelBackgroundColor=none;" edge="1" source="H-8P2ColLHqAHthHf_-5-21" target="H-8P2ColLHqAHthHf_-5-21" parent="9_Nisc85x8kSFl2lh7D6-2">
          <mxGeometry y="10" width="50" height="50" relative="1" as="geometry">
            <mxPoint x="350" y="360.5" as="sourcePoint" />
            <mxPoint x="400" y="310.5" as="targetPoint" />
            <mxPoint as="offset" />
          </mxGeometry>
        </mxCell>
        <mxCell id="H-8P2ColLHqAHthHf_-5-66" value="Personal Data" style="edgeStyle=orthogonalEdgeStyle;rounded=0;orthogonalLoop=1;jettySize=auto;html=1;exitX=0.5;exitY=1;exitDx=0;exitDy=0;entryX=1;entryY=0.25;entryDx=0;entryDy=0;startArrow=classic;startFill=1;endArrow=none;endFill=0;" edge="1" parent="9_Nisc85x8kSFl2lh7D6-2" source="H-8P2ColLHqAHthHf_-5-23" target="H-8P2ColLHqAHthHf_-5-14">
          <mxGeometry relative="1" as="geometry">
            <Array as="points">
              <mxPoint x="694" y="208.5" />
              <mxPoint x="609" y="208.5" />
            </Array>
          </mxGeometry>
        </mxCell>
        <mxCell id="H-8P2ColLHqAHthHf_-5-23" value="Sign-up" style="rounded=1;whiteSpace=wrap;html=1;fillColor=#dae8fc;strokeColor=#6c8ebf;" vertex="1" parent="9_Nisc85x8kSFl2lh7D6-2">
          <mxGeometry x="659" y="120.5" width="70" height="70" as="geometry" />
        </mxCell>
        <mxCell id="H-8P2ColLHqAHthHf_-5-24" value="3" style="endArrow=none;html=1;rounded=0;exitX=0;exitY=0.25;exitDx=0;exitDy=0;entryX=1;entryY=0.25;entryDx=0;entryDy=0;labelBackgroundColor=none;" edge="1" source="H-8P2ColLHqAHthHf_-5-23" target="H-8P2ColLHqAHthHf_-5-23" parent="9_Nisc85x8kSFl2lh7D6-2">
          <mxGeometry y="8" width="50" height="50" relative="1" as="geometry">
            <mxPoint x="539" y="340.5" as="sourcePoint" />
            <mxPoint x="589" y="290.5" as="targetPoint" />
            <mxPoint as="offset" />
          </mxGeometry>
        </mxCell>
        <mxCell id="H-8P2ColLHqAHthHf_-5-67" value="Login Credentials" style="edgeStyle=orthogonalEdgeStyle;rounded=0;orthogonalLoop=1;jettySize=auto;html=1;exitX=0.5;exitY=1;exitDx=0;exitDy=0;entryX=1;entryY=0.75;entryDx=0;entryDy=0;startArrow=classic;startFill=1;endArrow=none;endFill=0;" edge="1" parent="9_Nisc85x8kSFl2lh7D6-2" source="H-8P2ColLHqAHthHf_-5-25" target="H-8P2ColLHqAHthHf_-5-14">
          <mxGeometry relative="1" as="geometry" />
        </mxCell>
        <mxCell id="H-8P2ColLHqAHthHf_-5-25" value="Login" style="rounded=1;whiteSpace=wrap;html=1;fillColor=#dae8fc;strokeColor=#6c8ebf;" vertex="1" parent="9_Nisc85x8kSFl2lh7D6-2">
          <mxGeometry x="749" y="120.5" width="70" height="71" as="geometry" />
        </mxCell>
        <mxCell id="H-8P2ColLHqAHthHf_-5-26" value="4" style="endArrow=none;html=1;rounded=0;exitX=0;exitY=0.25;exitDx=0;exitDy=0;entryX=1;entryY=0.25;entryDx=0;entryDy=0;labelBackgroundColor=none;" edge="1" source="H-8P2ColLHqAHthHf_-5-25" target="H-8P2ColLHqAHthHf_-5-25" parent="9_Nisc85x8kSFl2lh7D6-2">
          <mxGeometry y="7" width="50" height="50" relative="1" as="geometry">
            <mxPoint x="469" y="162.5" as="sourcePoint" />
            <mxPoint x="519" y="112.5" as="targetPoint" />
            <mxPoint as="offset" />
          </mxGeometry>
        </mxCell>
        <mxCell id="H-8P2ColLHqAHthHf_-5-27" value="Checkout Cart" style="rounded=1;whiteSpace=wrap;html=1;fillColor=#dae8fc;strokeColor=#6c8ebf;" vertex="1" parent="9_Nisc85x8kSFl2lh7D6-2">
          <mxGeometry x="230" y="351.5" width="100" height="60" as="geometry" />
        </mxCell>
        <mxCell id="H-8P2ColLHqAHthHf_-5-28" value="6" style="endArrow=none;html=1;rounded=0;exitX=0;exitY=0.25;exitDx=0;exitDy=0;entryX=1;entryY=0.25;entryDx=0;entryDy=0;labelBackgroundColor=none;" edge="1" parent="9_Nisc85x8kSFl2lh7D6-2">
          <mxGeometry y="10" width="50" height="50" relative="1" as="geometry">
            <mxPoint x="230" y="371.5" as="sourcePoint" />
            <mxPoint x="330" y="371.5" as="targetPoint" />
            <mxPoint as="offset" />
          </mxGeometry>
        </mxCell>
        <mxCell id="H-8P2ColLHqAHthHf_-5-29" value="Process Payment" style="rounded=1;whiteSpace=wrap;html=1;fillColor=#dae8fc;strokeColor=#6c8ebf;" vertex="1" parent="9_Nisc85x8kSFl2lh7D6-2">
          <mxGeometry x="639" y="304.5" width="110" height="60" as="geometry" />
        </mxCell>
        <mxCell id="H-8P2ColLHqAHthHf_-5-30" value="7" style="endArrow=none;html=1;rounded=0;exitX=0;exitY=0.25;exitDx=0;exitDy=0;entryX=1;entryY=0.25;entryDx=0;entryDy=0;labelBackgroundColor=none;" edge="1" parent="9_Nisc85x8kSFl2lh7D6-2">
          <mxGeometry x="-0.0909" y="10" width="50" height="50" relative="1" as="geometry">
            <mxPoint x="639" y="324.5" as="sourcePoint" />
            <mxPoint x="749" y="324.5" as="targetPoint" />
            <mxPoint as="offset" />
          </mxGeometry>
        </mxCell>
        <mxCell id="H-8P2ColLHqAHthHf_-5-71" value="Delivery Details" style="edgeStyle=orthogonalEdgeStyle;rounded=0;orthogonalLoop=1;jettySize=auto;html=1;entryX=0.75;entryY=1;entryDx=0;entryDy=0;exitX=1.024;exitY=0.647;exitDx=0;exitDy=0;exitPerimeter=0;" edge="1" parent="9_Nisc85x8kSFl2lh7D6-2" source="H-8P2ColLHqAHthHf_-5-31" target="H-8P2ColLHqAHthHf_-5-70">
          <mxGeometry x="0.1666" relative="1" as="geometry">
            <mxPoint x="340" y="466" as="sourcePoint" />
            <Array as="points">
              <mxPoint x="704" y="466" />
            </Array>
            <mxPoint as="offset" />
          </mxGeometry>
        </mxCell>
        <mxCell id="H-8P2ColLHqAHthHf_-5-31" value="Submit Courier Instructions" style="rounded=1;whiteSpace=wrap;html=1;fillColor=#dae8fc;strokeColor=#6c8ebf;" vertex="1" parent="9_Nisc85x8kSFl2lh7D6-2">
          <mxGeometry x="235" y="420.5" width="90" height="70" as="geometry" />
        </mxCell>
        <mxCell id="H-8P2ColLHqAHthHf_-5-32" value="8" style="endArrow=none;html=1;rounded=0;exitX=0;exitY=0.25;exitDx=0;exitDy=0;entryX=1;entryY=0.25;entryDx=0;entryDy=0;labelBackgroundColor=none;" edge="1" source="H-8P2ColLHqAHthHf_-5-31" target="H-8P2ColLHqAHthHf_-5-31" parent="9_Nisc85x8kSFl2lh7D6-2">
          <mxGeometry y="9" width="50" height="50" relative="1" as="geometry">
            <mxPoint x="705" y="466.5" as="sourcePoint" />
            <mxPoint x="755" y="416.5" as="targetPoint" />
            <mxPoint as="offset" />
          </mxGeometry>
        </mxCell>
        <mxCell id="H-8P2ColLHqAHthHf_-5-36" value="Available&lt;div&gt;Stock&amp;nbsp;&lt;/div&gt;&lt;div&gt;Print-out&lt;/div&gt;" style="edgeStyle=orthogonalEdgeStyle;rounded=0;orthogonalLoop=1;jettySize=auto;html=1;exitX=0.101;exitY=-0.006;exitDx=0;exitDy=0;exitPerimeter=0;entryX=-0.029;entryY=0.36;entryDx=0;entryDy=0;entryPerimeter=0;" edge="1" parent="9_Nisc85x8kSFl2lh7D6-2" source="H-8P2ColLHqAHthHf_-5-7" target="H-8P2ColLHqAHthHf_-5-2">
          <mxGeometry x="-0.102" relative="1" as="geometry">
            <Array as="points">
              <mxPoint x="98" y="79.5" />
            </Array>
            <mxPoint y="1" as="offset" />
          </mxGeometry>
        </mxCell>
        <mxCell id="H-8P2ColLHqAHthHf_-5-37" value="Available Stock&lt;div&gt;Confirmation&lt;/div&gt;" style="edgeStyle=orthogonalEdgeStyle;rounded=0;orthogonalLoop=1;jettySize=auto;html=1;entryX=0.015;entryY=0.83;entryDx=0;entryDy=0;entryPerimeter=0;exitX=0.243;exitY=-0.025;exitDx=0;exitDy=0;exitPerimeter=0;" edge="1" parent="9_Nisc85x8kSFl2lh7D6-2" source="H-8P2ColLHqAHthHf_-5-7" target="H-8P2ColLHqAHthHf_-5-21">
          <mxGeometry x="0.2994" relative="1" as="geometry">
            <mxPoint x="109" y="250.5" as="sourcePoint" />
            <Array as="points">
              <mxPoint x="111" y="216.5" />
            </Array>
            <mxPoint as="offset" />
          </mxGeometry>
        </mxCell>
        <mxCell id="H-8P2ColLHqAHthHf_-5-40" value="Stock&lt;div&gt;Reduction&lt;/div&gt;" style="edgeStyle=orthogonalEdgeStyle;rounded=0;orthogonalLoop=1;jettySize=auto;html=1;entryX=0.006;entryY=0.704;entryDx=0;entryDy=0;entryPerimeter=0;startArrow=classic;startFill=1;endArrow=none;endFill=0;exitX=0.436;exitY=1.107;exitDx=0;exitDy=0;exitPerimeter=0;" edge="1" parent="9_Nisc85x8kSFl2lh7D6-2" source="H-8P2ColLHqAHthHf_-5-7" target="H-8P2ColLHqAHthHf_-5-27">
          <mxGeometry x="0.3297" relative="1" as="geometry">
            <mxPoint x="129" y="314.5" as="sourcePoint" />
            <Array as="points">
              <mxPoint x="128" y="315" />
              <mxPoint x="129" y="315" />
              <mxPoint x="129" y="394" />
            </Array>
            <mxPoint as="offset" />
          </mxGeometry>
        </mxCell>
        <mxCell id="H-8P2ColLHqAHthHf_-5-41" value="Purchased/&lt;div&gt;Returned&lt;br&gt;&lt;div&gt;Item(s)&lt;/div&gt;&lt;div&gt;Details&lt;/div&gt;&lt;/div&gt;" style="edgeStyle=orthogonalEdgeStyle;rounded=0;orthogonalLoop=1;jettySize=auto;html=1;exitX=0.267;exitY=1.071;exitDx=0;exitDy=0;exitPerimeter=0;" edge="1" parent="9_Nisc85x8kSFl2lh7D6-2" source="H-8P2ColLHqAHthHf_-5-7">
          <mxGeometry x="0.3996" y="10" relative="1" as="geometry">
            <mxPoint x="239" y="470.5" as="targetPoint" />
            <Array as="points">
              <mxPoint x="113" y="470.5" />
              <mxPoint x="239" y="470.5" />
            </Array>
            <mxPoint as="offset" />
          </mxGeometry>
        </mxCell>
        <mxCell id="H-8P2ColLHqAHthHf_-5-69" value="Payment&lt;div&gt;Methods&lt;/div&gt;" style="edgeStyle=orthogonalEdgeStyle;rounded=0;orthogonalLoop=1;jettySize=auto;html=1;exitX=1;exitY=1;exitDx=0;exitDy=0;exitPerimeter=0;entryX=1;entryY=0.75;entryDx=0;entryDy=0;" edge="1" parent="9_Nisc85x8kSFl2lh7D6-2" source="H-8P2ColLHqAHthHf_-5-45" target="H-8P2ColLHqAHthHf_-5-29">
          <mxGeometry x="0.7863" relative="1" as="geometry">
            <Array as="points">
              <mxPoint x="859" y="61.5" />
              <mxPoint x="859" y="349.5" />
            </Array>
            <mxPoint as="offset" />
          </mxGeometry>
        </mxCell>
        <mxCell id="H-8P2ColLHqAHthHf_-5-45" value="User Data" style="strokeWidth=2;html=1;shape=mxgraph.flowchart.annotation_1;align=left;pointerEvents=1;fillColor=default;strokeColor=#36393d;labelBackgroundColor=none;" vertex="1" parent="9_Nisc85x8kSFl2lh7D6-2">
          <mxGeometry x="699" y="40.5" width="90" height="21" as="geometry" />
        </mxCell>
        <mxCell id="H-8P2ColLHqAHthHf_-5-46" value="D2" style="strokeWidth=2;html=1;shape=mxgraph.flowchart.annotation_1;align=left;pointerEvents=1;fillColor=#ffcccc;strokeColor=#36393d;" vertex="1" parent="9_Nisc85x8kSFl2lh7D6-2">
          <mxGeometry x="679" y="40.5" width="20" height="21" as="geometry" />
        </mxCell>
        <mxCell id="H-8P2ColLHqAHthHf_-5-52" value="Inventory&lt;div&gt;Management&lt;/div&gt;" style="rounded=1;whiteSpace=wrap;html=1;fillColor=#dae8fc;strokeColor=#6c8ebf;" vertex="1" parent="9_Nisc85x8kSFl2lh7D6-2">
          <mxGeometry x="235" y="500.5" width="90" height="70" as="geometry" />
        </mxCell>
        <mxCell id="H-8P2ColLHqAHthHf_-5-53" value="9" style="endArrow=none;html=1;rounded=0;exitX=0;exitY=0.25;exitDx=0;exitDy=0;entryX=1;entryY=0.25;entryDx=0;entryDy=0;labelBackgroundColor=none;" edge="1" parent="9_Nisc85x8kSFl2lh7D6-2" source="H-8P2ColLHqAHthHf_-5-52" target="H-8P2ColLHqAHthHf_-5-52">
          <mxGeometry y="9" width="50" height="50" relative="1" as="geometry">
            <mxPoint x="685" y="536.5" as="sourcePoint" />
            <mxPoint x="735" y="486.5" as="targetPoint" />
            <mxPoint as="offset" />
          </mxGeometry>
        </mxCell>
        <mxCell id="H-8P2ColLHqAHthHf_-5-54" value="Profile&lt;div&gt;Data&lt;/div&gt;" style="edgeStyle=orthogonalEdgeStyle;rounded=0;orthogonalLoop=1;jettySize=auto;html=1;exitX=0.75;exitY=0;exitDx=0;exitDy=0;entryX=0.133;entryY=1.095;entryDx=0;entryDy=0;entryPerimeter=0;" edge="1" parent="9_Nisc85x8kSFl2lh7D6-2" source="H-8P2ColLHqAHthHf_-5-23" target="H-8P2ColLHqAHthHf_-5-45">
          <mxGeometry relative="1" as="geometry" />
        </mxCell>
        <mxCell id="H-8P2ColLHqAHthHf_-5-56" value="Login&lt;div&gt;Confirmation&lt;/div&gt;" style="edgeStyle=orthogonalEdgeStyle;rounded=0;orthogonalLoop=1;jettySize=auto;html=1;exitX=0.25;exitY=0;exitDx=0;exitDy=0;entryX=0.741;entryY=1.228;entryDx=0;entryDy=0;entryPerimeter=0;startArrow=classic;startFill=1;endArrow=none;endFill=0;" edge="1" parent="9_Nisc85x8kSFl2lh7D6-2" source="H-8P2ColLHqAHthHf_-5-25" target="H-8P2ColLHqAHthHf_-5-45">
          <mxGeometry relative="1" as="geometry" />
        </mxCell>
        <mxCell id="H-8P2ColLHqAHthHf_-5-58" value="Site&lt;div&gt;Navigation&lt;/div&gt;" style="edgeStyle=orthogonalEdgeStyle;rounded=0;orthogonalLoop=1;jettySize=auto;html=1;exitX=0;exitY=0.25;exitDx=0;exitDy=0;entryX=1.001;entryY=0.396;entryDx=0;entryDy=0;entryPerimeter=0;" edge="1" parent="9_Nisc85x8kSFl2lh7D6-2" source="H-8P2ColLHqAHthHf_-5-14" target="H-8P2ColLHqAHthHf_-5-2">
          <mxGeometry relative="1" as="geometry">
            <Array as="points">
              <mxPoint x="409" y="208.5" />
              <mxPoint x="409" y="82.5" />
            </Array>
          </mxGeometry>
        </mxCell>
        <mxCell id="H-8P2ColLHqAHthHf_-5-59" value="Desired&amp;nbsp;&lt;div&gt;Items&lt;/div&gt;" style="edgeStyle=orthogonalEdgeStyle;rounded=0;orthogonalLoop=1;jettySize=auto;html=1;exitX=0;exitY=0.5;exitDx=0;exitDy=0;entryX=1.049;entryY=0.822;entryDx=0;entryDy=0;entryPerimeter=0;" edge="1" parent="9_Nisc85x8kSFl2lh7D6-2" source="H-8P2ColLHqAHthHf_-5-14" target="H-8P2ColLHqAHthHf_-5-21">
          <mxGeometry x="0.1743" relative="1" as="geometry">
            <mxPoint x="349" y="215.5" as="targetPoint" />
            <mxPoint as="offset" />
          </mxGeometry>
        </mxCell>
        <mxCell id="H-8P2ColLHqAHthHf_-5-64" value="Inventory&lt;div&gt;Updates&lt;/div&gt;" style="edgeStyle=orthogonalEdgeStyle;rounded=0;orthogonalLoop=1;jettySize=auto;html=1;exitX=0;exitY=0.5;exitDx=0;exitDy=0;entryX=0.116;entryY=1.177;entryDx=0;entryDy=0;entryPerimeter=0;startArrow=none;startFill=0;endArrow=classic;endFill=1;" edge="1" parent="9_Nisc85x8kSFl2lh7D6-2" source="H-8P2ColLHqAHthHf_-5-52" target="H-8P2ColLHqAHthHf_-5-7">
          <mxGeometry x="-0.0483" relative="1" as="geometry">
            <mxPoint as="offset" />
          </mxGeometry>
        </mxCell>
        <mxCell id="H-8P2ColLHqAHthHf_-5-65" value="Delivery&lt;div&gt;Details&lt;/div&gt;" style="edgeStyle=orthogonalEdgeStyle;rounded=0;orthogonalLoop=1;jettySize=auto;html=1;exitX=1;exitY=0.5;exitDx=0;exitDy=0;exitPerimeter=0;entryX=1.017;entryY=0.852;entryDx=0;entryDy=0;entryPerimeter=0;" edge="1" parent="9_Nisc85x8kSFl2lh7D6-2" source="H-8P2ColLHqAHthHf_-5-45" target="H-8P2ColLHqAHthHf_-5-31">
          <mxGeometry relative="1" as="geometry">
            <mxPoint x="359" y="480.5" as="targetPoint" />
            <Array as="points">
              <mxPoint x="879" y="51.5" />
              <mxPoint x="879" y="480.5" />
            </Array>
          </mxGeometry>
        </mxCell>
        <mxCell id="H-8P2ColLHqAHthHf_-5-70" value="Courier" style="rounded=0;whiteSpace=wrap;html=1;fillColor=#fff2cc;strokeColor=#d6b656;" vertex="1" parent="9_Nisc85x8kSFl2lh7D6-2">
          <mxGeometry x="629" y="420.5" width="100" height="30" as="geometry" />
        </mxCell>
        <mxCell id="H-8P2ColLHqAHthHf_-5-73" value="Inventory Detail&lt;div&gt;Updating&lt;/div&gt;" style="edgeStyle=orthogonalEdgeStyle;rounded=0;orthogonalLoop=1;jettySize=auto;html=1;exitX=0;exitY=0.5;exitDx=0;exitDy=0;entryX=1;entryY=0.5;entryDx=0;entryDy=0;" edge="1" parent="9_Nisc85x8kSFl2lh7D6-2" source="H-8P2ColLHqAHthHf_-5-72" target="H-8P2ColLHqAHthHf_-5-52">
          <mxGeometry relative="1" as="geometry" />
        </mxCell>
        <mxCell id="H-8P2ColLHqAHthHf_-5-72" value="Owner" style="rounded=0;whiteSpace=wrap;html=1;fillColor=#fff2cc;strokeColor=#d6b656;" vertex="1" parent="9_Nisc85x8kSFl2lh7D6-2">
          <mxGeometry x="559" y="520.5" width="100" height="30" as="geometry" />
        </mxCell>
        <mxCell id="H-8P2ColLHqAHthHf_-5-74" value="Product&lt;div&gt;Query&lt;/div&gt;" style="rounded=1;whiteSpace=wrap;html=1;fillColor=#dae8fc;strokeColor=#6c8ebf;" vertex="1" parent="9_Nisc85x8kSFl2lh7D6-2">
          <mxGeometry x="459" y="16" width="80" height="70" as="geometry" />
        </mxCell>
        <mxCell id="H-8P2ColLHqAHthHf_-5-75" value="10" style="endArrow=none;html=1;rounded=0;exitX=0;exitY=0.25;exitDx=0;exitDy=0;entryX=1;entryY=0.25;entryDx=0;entryDy=0;labelBackgroundColor=none;" edge="1" parent="9_Nisc85x8kSFl2lh7D6-2" source="H-8P2ColLHqAHthHf_-5-74" target="H-8P2ColLHqAHthHf_-5-74">
          <mxGeometry y="10" width="50" height="50" relative="1" as="geometry">
            <mxPoint x="649" y="186" as="sourcePoint" />
            <mxPoint x="699" y="136" as="targetPoint" />
            <mxPoint as="offset" />
          </mxGeometry>
        </mxCell>
        <mxCell id="H-8P2ColLHqAHthHf_-5-76" style="edgeStyle=orthogonalEdgeStyle;rounded=0;orthogonalLoop=1;jettySize=auto;html=1;exitX=0.5;exitY=0;exitDx=0;exitDy=0;entryX=0.626;entryY=1.003;entryDx=0;entryDy=0;entryPerimeter=0;" edge="1" parent="9_Nisc85x8kSFl2lh7D6-2" source="H-8P2ColLHqAHthHf_-5-14" target="H-8P2ColLHqAHthHf_-5-74">
          <mxGeometry relative="1" as="geometry" />
        </mxCell>
        <mxCell id="H-8P2ColLHqAHthHf_-5-78" value="Query Product" style="edgeStyle=orthogonalEdgeStyle;rounded=0;orthogonalLoop=1;jettySize=auto;html=1;exitX=0;exitY=0.25;exitDx=0;exitDy=0;entryX=0;entryY=0.5;entryDx=0;entryDy=0;entryPerimeter=0;" edge="1" parent="9_Nisc85x8kSFl2lh7D6-2" source="H-8P2ColLHqAHthHf_-5-74" target="H-8P2ColLHqAHthHf_-5-13">
          <mxGeometry relative="1" as="geometry" />
        </mxCell>
        <mxCell id="H-8P2ColLHqAHthHf_-5-81" value="Log Return" style="rounded=1;whiteSpace=wrap;html=1;fillColor=#dae8fc;strokeColor=#6c8ebf;" vertex="1" parent="9_Nisc85x8kSFl2lh7D6-2">
          <mxGeometry x="339" y="295.5" width="80" height="60" as="geometry" />
        </mxCell>
        <mxCell id="H-8P2ColLHqAHthHf_-5-82" value="11" style="endArrow=none;html=1;rounded=0;exitX=0;exitY=0.25;exitDx=0;exitDy=0;entryX=1;entryY=0.25;entryDx=0;entryDy=0;labelBackgroundColor=none;" edge="1" parent="9_Nisc85x8kSFl2lh7D6-2" source="H-8P2ColLHqAHthHf_-5-81" target="H-8P2ColLHqAHthHf_-5-81">
          <mxGeometry y="8" width="50" height="50" relative="1" as="geometry">
            <mxPoint x="219" y="95.5" as="sourcePoint" />
            <mxPoint x="269" y="45.5" as="targetPoint" />
            <mxPoint as="offset" />
          </mxGeometry>
        </mxCell>
        <mxCell id="H-8P2ColLHqAHthHf_-5-83" value="Log&lt;div&gt;Return&lt;/div&gt;" style="edgeStyle=orthogonalEdgeStyle;rounded=0;orthogonalLoop=1;jettySize=auto;html=1;exitX=0.25;exitY=1;exitDx=0;exitDy=0;entryX=1.012;entryY=0.697;entryDx=0;entryDy=0;entryPerimeter=0;" edge="1" parent="9_Nisc85x8kSFl2lh7D6-2" source="H-8P2ColLHqAHthHf_-5-14" target="H-8P2ColLHqAHthHf_-5-81">
          <mxGeometry x="-0.0521" y="-15" relative="1" as="geometry">
            <mxPoint as="offset" />
          </mxGeometry>
        </mxCell>
        <mxCell id="H-8P2ColLHqAHthHf_-5-84" value="Update Stock" style="edgeStyle=orthogonalEdgeStyle;rounded=0;orthogonalLoop=1;jettySize=auto;html=1;exitX=0.635;exitY=1.063;exitDx=0;exitDy=0;exitPerimeter=0;entryX=0.007;entryY=0.625;entryDx=0;entryDy=0;entryPerimeter=0;startArrow=classic;startFill=1;endArrow=none;endFill=0;" edge="1" parent="9_Nisc85x8kSFl2lh7D6-2" source="H-8P2ColLHqAHthHf_-5-7" target="H-8P2ColLHqAHthHf_-5-81">
          <mxGeometry relative="1" as="geometry">
            <Array as="points">
              <mxPoint x="146" y="333.5" />
            </Array>
          </mxGeometry>
        </mxCell>
        <mxCell id="H-8P2ColLHqAHthHf_-5-87" style="edgeStyle=orthogonalEdgeStyle;rounded=0;orthogonalLoop=1;jettySize=auto;html=1;entryX=0.604;entryY=-0.018;entryDx=0;entryDy=0;entryPerimeter=0;exitX=-0.001;exitY=0.477;exitDx=0;exitDy=0;exitPerimeter=0;" edge="1" parent="9_Nisc85x8kSFl2lh7D6-2" source="H-8P2ColLHqAHthHf_-5-17" target="H-8P2ColLHqAHthHf_-5-7">
          <mxGeometry relative="1" as="geometry" />
        </mxCell>
        <mxCell id="9_Nisc85x8kSFl2lh7D6-28" value="Data Flow Diagram" style="text;html=1;align=center;verticalAlign=middle;whiteSpace=wrap;rounded=0;fontStyle=4" parent="1" vertex="1">
          <mxGeometry x="520" y="90" width="140" height="30" as="geometry" />
        </mxCell>
      </root>
    </mxGraphModel>
  </diagram>
</mxfile>
